<svg xmlns="http://www.w3.org/2000/svg" viewBox="0 0 65 65">
  <path d="M63.66 28.7l-4.38-5.44a6.075 6.075 0 01-1.26-3.13l-.77-6.9a6.123 6.123 0 00-5.4-5.4l-6.9-.77c-1.22-.12-2.27-.65-3.17-1.34l-5.44-4.38a6.092 6.092 0 00-7.63 0l-5.44 4.38c-.89.69-1.95 1.14-3.13 1.26l-6.9.77a6.133 6.133 0 00-5.4 5.4l-.77 6.9c-.12 1.22-.65 2.27-1.34 3.17l-4.38 5.44a6.092 6.092 0 000 7.63l4.38 5.44c.69.89 1.14 1.95 1.26 3.13l.77 6.9a6.123 6.123 0 005.4 5.4l6.9.77c1.22.12 2.27.65 3.17 1.34l5.44 4.38a6.092 6.092 0 007.63 0l5.44-4.38c.89-.69 1.95-1.14 3.13-1.26l6.9-.77a6.123 6.123 0 005.4-5.4l.77-6.9c.12-1.22.65-2.27 1.34-3.17l4.38-5.44a6.092 6.092 0 000-7.63zM26.43 48.76L12.22 34.55l6.09-6.09 8.12 8.12 20.3-20.3 6.09 6.29-26.39 26.19z" fill="#b30065"/>
</svg>
